<svg width="81" height="54" viewBox="0 0 81 54" fill="none" xmlns="http://www.w3.org/2000/svg">
<path d="M54 27C54 41.9117 41.9117 54 27 54C12.0883 54 0 41.9117 0 27C0 12.0883 12.0883 0 27 0C41.9117 0 54 12.0883 54 27ZM6.48 27C6.48 38.3329 15.6671 47.52 27 47.52C38.3329 47.52 47.52 38.3329 47.52 27C47.52 15.6671 38.3329 6.48 27 6.48C15.6671 6.48 6.48 15.6671 6.48 27Z" fill="#51FAAA"/>
<path d="M81 27C81 41.9117 68.9117 54 54 54C39.0883 54 27 41.9117 27 27C27 12.0883 39.0883 0 54 0C68.9117 0 81 12.0883 81 27ZM33.48 27C33.48 38.3329 42.6671 47.52 54 47.52C65.3329 47.52 74.52 38.3329 74.52 27C74.52 15.6671 65.3329 6.48 54 6.48C42.6671 6.48 33.48 15.6671 33.48 27Z" fill="#D8D6A3"/>
</svg>
